<?xml version="1.0" standalone="no"?>
<!DOCTYPE svg PUBLIC "-//W3C//DTD SVG 20010904//EN"
 "http://www.w3.org/TR/2001/REC-SVG-20010904/DTD/svg10.dtd">
<svg version="1.0" xmlns="http://www.w3.org/2000/svg"
 width="225.000000pt" height="225.000000pt" viewBox="0 0 225.000000 225.000000"
 preserveAspectRatio="xMidYMid meet">
<metadata>
Created by potrace 1.16, written by Peter Selinger 2001-2019
</metadata>
<g transform="translate(0.000000,225.000000) scale(0.100000,-0.100000)"
fill="#000000" stroke="none">
<path d="M594 1259 c-4 -8 -6 -133 -4 -260 0 -21 4 -21 79 -17 51 3 89 11 105
21 81 54 76 199 -8 241 -35 17 -164 28 -172 15z m160 -60 c22 -18 26 -28 26
-74 0 -62 -21 -91 -76 -101 -66 -12 -69 -9 -72 99 l-3 97 49 0 c35 0 57 -6 76
-21z"/>
<path d="M943 1256 c-96 -43 -98 -212 -4 -261 39 -20 104 -19 147 1 39 19 49
51 12 39 -13 -4 -44 -10 -70 -12 -43 -4 -51 -2 -78 26 -23 22 -30 38 -28 58
l3 28 98 3 97 3 0 29 c0 18 -11 42 -28 61 -33 37 -98 48 -149 25z"/>
<path d="M1235 1261 c-28 -12 -62 -51 -74 -84 -17 -44 -13 -86 11 -129 39 -68
108 -86 183 -48 38 20 38 20 52 0 16 -23 35 -25 65 -9 20 11 20 11 -3 23 -23
11 -24 17 -27 134 -2 99 -5 122 -17 122 -8 0 -15 -3 -15 -7 0 -5 -4 -15 -10
-23 -7 -12 -12 -12 -29 4 -23 21 -104 31 -136 17z m126 -52 c26 -18 29 -26 29
-77 0 -63 -4 -70 -40 -95 -55 -38 -121 -13 -141 52 -14 47 1 103 34 126 30 21
84 19 118 -6z"/>
<path d="M1570 1263 c-33 -12 -50 -37 -50 -74 0 -42 30 -71 87 -83 39 -9 56
-28 51 -58 -3 -21 -8 -23 -58 -23 -30 1 -63 5 -73 9 -14 7 -17 4 -14 -15 5
-28 52 -43 114 -36 106 12 110 134 6 165 -57 17 -77 34 -69 60 6 18 15 22 47
22 22 0 49 -5 60 -10 16 -9 19 -7 19 10 0 31 -71 51 -120 33z"/>
</g>
</svg>
