<?xml version="1.0" standalone="no"?>
<!DOCTYPE svg PUBLIC "-//W3C//DTD SVG 20010904//EN"
 "http://www.w3.org/TR/2001/REC-SVG-20010904/DTD/svg10.dtd">
<svg version="1.0" xmlns="http://www.w3.org/2000/svg"
 width="200.000000pt" height="200.000000pt" viewBox="0 0 200.000000 200.000000"
 preserveAspectRatio="xMidYMid meet">
<metadata>
Created by potrace 1.16, written by Peter Selinger 2001-2019
</metadata>
<g transform="translate(0.000000,200.000000) scale(0.100000,-0.100000)"
fill="#000000" stroke="none">
<path d="M1481 1769 c-35 -11 -91 -48 -91 -60 0 -4 27 -21 60 -37 47 -24 68
-29 100 -25 46 6 70 -8 70 -42 0 -14 20 -42 52 -74 47 -45 54 -49 68 -36 10
10 15 36 15 78 0 52 -5 71 -27 105 -52 77 -160 117 -247 91z"/>
<path d="M965 1712 c-52 -4 -216 -41 -230 -51 -5 -4 -24 -13 -42 -19 -155 -52
-369 -257 -429 -412 -9 -25 -20 -49 -24 -55 -17 -23 -40 -160 -40 -238 0 -368
297 -699 682 -762 118 -19 193 -19 303 0 174 31 314 105 450 240 135 135 208
288 222 462 29 387 -254 736 -663 817 -86 16 -166 23 -229 18z m95 -146 c0
-41 25 -56 93 -56 48 0 65 4 84 22 21 19 26 20 62 9 37 -11 40 -14 43 -52 3
-35 8 -44 39 -62 34 -19 40 -20 78 -7 41 13 43 13 69 -13 25 -25 26 -29 15
-69 -10 -35 -9 -47 4 -69 19 -33 52 -49 97 -49 30 0 34 -4 45 -41 13 -44 6
-63 -31 -75 -39 -12 -1 -114 44 -114 15 0 18 -8 18 -55 0 -51 -2 -55 -24 -55
-52 0 -71 -71 -35 -136 19 -35 21 -48 13 -71 -8 -25 -15 -28 -51 -28 -23 -1
-44 -3 -46 -5 -25 -34 -37 -67 -37 -103 0 -33 -6 -49 -24 -66 -22 -21 -27 -22
-59 -10 -32 11 -37 10 -71 -16 -23 -17 -36 -36 -36 -50 0 -16 -11 -30 -36 -44
-44 -27 -61 -26 -83 0 -16 21 -21 21 -69 10 -38 -10 -57 -21 -77 -47 -20 -26
-33 -34 -59 -34 -36 0 -56 15 -56 42 0 21 -33 36 -96 45 -37 5 -44 3 -59 -21
-19 -29 -33 -31 -82 -14 -30 11 -33 15 -33 54 0 59 -26 77 -100 68 -66 -7 -86
5 -153 94 -88 118 -120 215 -115 356 l3 88 35 12 c44 14 52 51 20 96 -16 23
-19 38 -14 65 6 33 9 35 44 35 34 0 42 5 69 45 25 38 29 49 21 71 -16 40 -12
62 14 79 20 13 32 14 63 6 33 -9 42 -8 76 15 33 22 38 29 32 53 -5 25 -1 31
30 50 46 27 75 27 82 0 5 -19 10 -20 62 -14 69 9 71 10 71 44 0 38 5 41 67 41
49 0 53 -2 53 -24z"/>
<path d="M900 1406 c-80 -23 -163 -70 -223 -125 -74 -69 -111 -123 -143 -208
-22 -58 -25 -80 -22 -148 9 -177 113 -329 282 -415 208 -106 441 -67 609 101
253 253 165 627 -183 774 -54 23 -83 28 -170 31 -67 2 -121 -1 -150 -10z m319
-69 c116 -48 213 -147 257 -262 26 -69 26 -210 -1 -280 -43 -115 -133 -208
-252 -260 -64 -28 -76 -30 -198 -30 -130 0 -130 0 -205 37 -96 47 -144 87
-191 160 -55 86 -72 149 -67 254 4 113 41 199 121 278 100 100 203 137 367
132 86 -2 117 -8 169 -29z"/>
<path d="M910 1316 c-190 -55 -327 -241 -305 -415 12 -96 40 -155 109 -224
146 -147 347 -179 526 -81 65 35 145 122 179 194 22 47 26 68 26 150 -1 82 -4
102 -27 150 -40 81 -118 156 -208 199 -66 31 -85 36 -165 38 -52 1 -109 -3
-135 -11z m188 -261 c42 -17 92 -83 92 -122 0 -38 -30 -97 -62 -123 -45 -35
-143 -41 -192 -11 -72 45 -96 131 -55 198 41 65 135 91 217 58z"/>
</g>
</svg>
