<?xml version="1.0" standalone="no"?>
<!DOCTYPE svg PUBLIC "-//W3C//DTD SVG 20010904//EN"
 "http://www.w3.org/TR/2001/REC-SVG-20010904/DTD/svg10.dtd">
<svg version="1.0" xmlns="http://www.w3.org/2000/svg"
 width="350.000000pt" height="350.000000pt" viewBox="0 0 351.000000 144.000000"
 preserveAspectRatio="xMidYMid meet">
<metadata>
Created by potrace 1.16, written by Peter Selinger 2001-2019
</metadata>
<g transform="translate(0.000000,144.000000) scale(0.100000,-0.100000)"
fill="#000000" stroke="none">
<path d="M410 1430 c-82 -13 -162 -46 -227 -94 -65 -48 -97 -86 -139 -166 -27
-51 -29 -63 -29 -166 0 -107 1 -112 37 -185 34 -68 263 -363 320 -411 52 -46
148 2 148 74 0 28 -19 56 -112 168 -130 158 -158 209 -158 296 0 112 87 237
205 294 133 65 332 42 449 -52 35 -28 37 -29 26 -7 -91 177 -309 281 -520 249z"/>
<path d="M1355 1257 c-102 -27 -179 -85 -209 -159 -23 -53 -21 -160 3 -206 43
-83 115 -123 310 -172 189 -47 241 -82 241 -162 0 -55 -24 -94 -73 -120 -61
-32 -213 -33 -273 -1 -53 28 -91 74 -100 118 l-6 35 -69 0 -69 0 0 -30 c0 -45
37 -132 74 -177 22 -24 59 -51 98 -68 55 -25 78 -30 175 -33 94 -3 124 -1 182
17 90 27 147 72 184 141 26 50 28 62 25 142 -3 77 -6 91 -33 130 -41 58 -126
99 -291 142 -149 38 -196 58 -224 94 -24 30 -26 89 -4 121 38 54 162 77 257
49 52 -16 104 -68 113 -113 l6 -35 70 0 71 0 -5 50 c-10 105 -85 193 -191 225
-72 22 -201 28 -262 12z"/>
<path d="M2174 1256 c-34 -8 -76 -21 -93 -30 -84 -44 -147 -134 -158 -227 l-6
-49 70 0 69 0 13 50 c23 89 93 130 221 130 76 0 140 -25 165 -64 23 -34 30
-99 16 -134 -18 -43 -55 -59 -210 -87 -228 -41 -301 -77 -346 -170 -37 -75
-39 -189 -5 -259 48 -100 137 -141 288 -134 111 5 171 29 248 100 l44 41 0
-28 c0 -40 27 -91 56 -104 31 -14 119 -14 145 -1 15 9 19 22 19 69 0 57 0 58
-27 54 -59 -8 -58 -13 -63 349 -4 241 -9 341 -18 363 -21 49 -72 94 -130 115
-72 27 -216 35 -298 16z m306 -568 c0 -110 -17 -156 -75 -207 -58 -50 -99 -65
-190 -65 -124 -1 -175 40 -175 140 0 109 55 149 252 180 55 9 116 22 136 29
21 8 40 14 45 14 4 1 7 -41 7 -91z"/>
<path d="M2955 1257 c-121 -32 -195 -93 -221 -185 -32 -108 5 -214 93 -270 53
-33 99 -49 252 -87 126 -32 176 -56 201 -98 41 -67 16 -142 -60 -180 -36 -18
-62 -22 -130 -22 -47 0 -101 6 -121 13 -51 18 -98 68 -112 119 l-11 43 -73 0
-72 0 5 -32 c15 -86 38 -133 89 -184 69 -69 145 -94 284 -94 193 0 314 67 359
199 18 51 14 150 -7 196 -41 90 -106 127 -313 179 -75 19 -148 41 -164 49
-110 57 -101 181 15 216 58 17 150 13 196 -8 48 -22 91 -69 100 -111 7 -30 7
-30 77 -30 l71 0 -6 50 c-13 107 -86 194 -191 226 -71 21 -200 26 -261 11z"/>
<path d="M488 1044 c-33 -18 -48 -43 -48 -82 0 -32 1 -34 139 -202 111 -135
134 -181 135 -266 0 -83 -36 -155 -114 -227 -68 -63 -136 -93 -232 -103 -115
-11 -256 34 -325 102 -30 30 -29 23 3 -29 79 -127 206 -208 358 -227 260 -33
499 123 547 357 16 78 1 171 -43 260 -32 65 -303 404 -337 423 -26 14 -51 12
-83 -6z"/>
</g>
</svg>
